<?xml version="1.0" encoding="utf-8"?>
<!-- Generator: Adobe Illustrator 24.1.3, SVG Export Plug-In . SVG Version: 6.00 Build 0)  -->
<svg version="1.1" id="Layer_1" xmlns="http://www.w3.org/2000/svg" xmlns:xlink="http://www.w3.org/1999/xlink" x="0px" y="0px"
	 viewBox="0 0 2340 1560" enable-background="new 0 0 2340 1560" xml:space="preserve">
<g>
	<path fill="#B3CDD8" d="M1057.005,780.534c0-6.629-5.374-12.005-12.005-12.005s-12.005,5.376-12.005,12.005
		c0,6.631,5.374,12.007,12.005,12.007S1057.005,787.165,1057.005,780.534z"/>
	<path fill="#B3CDD8" d="M1117.172,780.534c0-6.629-5.374-12.005-12.005-12.005s-12.005,5.376-12.005,12.005
		c0,6.631,5.374,12.007,12.005,12.007S1117.172,787.165,1117.172,780.534z"/>
	<path fill="#B3CDD8" d="M1177.333,780.534c0-6.629-5.369-12.005-12-12.005s-12.005,5.376-12.005,12.005
		c0,6.631,5.374,12.007,12.005,12.007S1177.333,787.165,1177.333,780.534z"/>
	<path fill="#B3CDD8" d="M1363.145,620.15c-8.955-88.241-87.42-140.671-172.913-136.08c-0.398,18.406-0.344,116.754-0.225,199.472
		c-22.696-19.873-52.374-31.964-84.84-31.964c-71.109,0-128.958,57.852-128.958,128.956c0,71.108,57.849,128.963,128.958,128.963
		c35.542,0,67.769-14.462,91.117-37.793l-55.008-14.742c-10.972,5.206-23.185,8.208-36.109,8.208
		c-46.668,0-84.632-37.969-84.632-84.636c0-46.663,37.964-84.629,84.632-84.629c46.665,0,84.628,37.966,84.628,84.629
		c0,12.927-3,25.136-8.203,36.104l14.744,55.016c23.332-23.355,37.784-55.578,37.784-91.12v-249.63
		c75.306,13.103,107.007,67.998,125.583,136.59C1362.862,652.167,1364.899,635.812,1363.145,620.15z"/>
</g>
<rect x="1272.246" y="709.173" fill="none" width="496.42" height="83.368"/>
<text transform="matrix(1 0 0 1 1272.2463 775.673)" fill="#B3CDD8" font-family="'RiftSoft-Regular'" font-size="95px">MUSIC LAB</text>
</svg>
